<svg xmlns="http://www.w3.org/2000/svg" width="1220" height="420" viewBox="0 0 1220 420"><g transform="translate(-214.24,-184.24) scale(0.77)"><g><circle cx="512" cy="512" r="195" fill="#F0B98E" stroke="#E0976E" stroke-width="6"/><path d="M512 317 C500 277 562 266 570 305 C575 331 534 337 524 318" fill="none" stroke="#3E4C70" stroke-width="22" stroke-linecap="round"/><circle cx="395" cy="551" r="29" fill="#F2A07D"/><circle cx="629" cy="551" r="29" fill="#F2A07D"/><circle cx="454" cy="483" r="16" fill="#3E4C70"/><circle cx="570" cy="483" r="16" fill="#3E4C70"/><path d="M442 561 Q512 619 582 561" fill="none" stroke="#3E4C70" stroke-width="18" stroke-linecap="round"/></g></g><g transform="translate(376.65,269.37) scale(1.2368)"><path d="M101.59 -41.97 C101.59 -29.50 97.46 -19.05 89.19 -10.62 C80.93 -2.21 70.46 2.00 57.80 2.00 C45.13 2.00 33.66 -5.10 23.41 -19.30 C23.53 -12.90 24.93 -2.57 27.59 11.69 C29.86 25.56 31.00 35.56 31.00 41.69 C31.00 44.89 27.20 46.50 19.59 46.50 C13.73 46.50 10.80 43.30 10.80 36.92 C10.80 31.98 11.06 26.66 11.59 20.94 L12.80 7.56 C13.20 4.36 13.47 1.83 13.59 -0.03 C14.13 -4.16 14.41 -10.31 14.41 -18.50 C14.41 -26.69 14.10 -38.20 13.50 -53.05 C12.89 -67.89 12.59 -79.84 12.59 -88.89 C12.59 -123.63 27.06 -141.00 56.00 -141.00 C65.86 -141.00 74.13 -138.54 80.80 -133.61 C88.13 -127.87 91.80 -120.27 91.80 -110.80 C91.80 -96.80 87.39 -86.66 78.59 -80.38 C85.66 -77.20 91.27 -72.09 95.39 -65.06 C99.52 -58.03 101.59 -50.33 101.59 -41.97 Z M49.00 -89.16 L60.00 -88.36 C64.80 -88.36 69.27 -91.59 73.39 -98.06 C77.52 -104.54 79.59 -110.48 79.59 -115.89 C79.59 -121.30 77.79 -125.91 74.19 -129.72 C70.59 -133.52 65.93 -135.42 60.20 -135.42 C35.00 -135.42 22.67 -102.62 23.20 -37.03 L23.20 -26.45 C32.00 -14.66 41.44 -8.77 51.50 -8.77 C61.56 -8.77 69.83 -12.77 76.30 -20.80 C82.77 -28.83 86.00 -37.55 86.00 -46.97 C86.00 -59.82 81.93 -69.89 73.80 -77.19 C66.60 -72.39 58.73 -70.00 50.20 -70.00 C47.93 -70.00 45.96 -70.96 44.30 -72.89 C42.63 -74.83 41.80 -76.99 41.80 -79.39 C41.80 -85.90 44.20 -89.16 49.00 -89.16 Z M165.41 -94.00 C178.47 -94.00 189.30 -89.80 197.89 -81.42 C206.49 -73.05 210.80 -61.90 210.80 -47.98 C210.80 -34.08 206.39 -22.10 197.59 -12.06 C188.80 -2.02 177.07 3.00 162.41 3.00 C145.20 3.00 132.06 -6.51 123.00 -25.53 C123.00 -13.71 125.20 -2.95 129.59 6.75 C132.26 12.86 136.46 19.38 142.20 26.28 C146.60 31.99 148.80 35.97 148.80 38.23 C148.80 40.49 147.66 42.52 145.39 44.31 C143.13 46.10 140.53 47.00 137.59 47.00 C128.39 47.00 122.00 36.69 118.41 16.08 C116.27 4.25 115.20 -10.13 115.20 -27.08 C115.20 -44.04 118.94 -58.83 126.41 -71.47 C135.47 -86.49 148.47 -94.00 165.41 -94.00 Z M184.59 -20.94 C189.39 -30.78 191.80 -40.83 191.80 -51.08 C191.80 -61.33 190.20 -69.52 187.00 -75.64 C182.86 -83.75 176.66 -87.81 168.41 -87.81 C157.60 -87.81 149.00 -81.69 142.59 -69.45 C137.26 -59.34 134.59 -49.09 134.59 -38.70 C134.59 -28.33 136.79 -19.78 141.19 -13.06 C145.59 -6.34 152.06 -2.98 160.59 -2.98 C170.47 -2.98 178.47 -8.97 184.59 -20.94 Z M292.41 -136.39 C292.41 -133.45 291.54 -131.12 289.80 -129.39 L263.41 -102.17 L259.00 -102.97 L278.41 -139.19 C279.74 -141.73 282.20 -143.00 285.80 -143.00 C290.20 -143.00 292.41 -140.80 292.41 -136.39 Z M304.41 -25.00 L304.41 -23.41 C305.07 -15.06 300.13 -8.24 289.59 -2.95 C280.66 1.68 271.30 4.00 261.50 4.00 C251.70 4.00 243.46 1.82 236.80 -2.53 C228.54 -7.53 224.41 -14.88 224.41 -24.56 C224.41 -34.25 229.34 -41.60 239.20 -46.61 C231.20 -50.37 227.20 -56.79 227.20 -65.86 C227.20 -74.93 231.07 -81.75 238.80 -86.31 C245.33 -90.21 252.56 -92.16 260.50 -92.16 C268.44 -92.16 276.34 -91.29 284.20 -89.55 C295.27 -87.29 300.80 -84.42 300.80 -80.95 C300.80 -79.08 299.93 -76.50 298.19 -73.23 C296.46 -69.96 294.76 -68.33 293.09 -68.33 C291.43 -68.33 287.06 -69.44 280.00 -71.66 C272.94 -73.88 267.34 -75.00 263.20 -75.00 C244.93 -75.00 235.80 -70.52 235.80 -61.58 C235.80 -58.73 237.03 -56.09 239.50 -53.66 C241.97 -51.22 244.33 -50.00 246.59 -50.00 C248.86 -50.00 252.07 -50.66 256.20 -52.00 C260.34 -53.33 263.60 -54.00 266.00 -54.00 C272.80 -54.00 276.20 -51.67 276.20 -47.02 C276.20 -41.02 271.87 -38.03 263.20 -38.03 C260.54 -38.03 257.20 -38.66 253.20 -39.94 L247.41 -42.02 C244.20 -42.02 240.93 -40.77 237.59 -38.28 C234.39 -35.66 232.80 -32.85 232.80 -29.84 C232.80 -24.35 236.73 -20.10 244.59 -17.09 C250.33 -14.74 256.54 -13.56 263.20 -13.56 C279.20 -13.56 292.94 -17.38 304.41 -25.00 Z M370.20 -6.09 L369.41 -36.72 C369.41 -54.34 371.27 -67.73 375.00 -76.89 C379.94 -89.75 388.67 -96.19 401.20 -96.19 C412.40 -96.19 421.43 -91.71 428.30 -82.75 C435.16 -73.80 438.59 -63.62 438.59 -52.22 C438.59 -35.78 432.86 -22.79 421.41 -13.23 C411.27 -4.75 397.66 0.15 380.59 1.48 C380.73 5.08 381.36 10.60 382.50 18.05 C383.63 25.50 384.20 31.16 384.20 35.02 C384.20 42.34 381.33 46.00 375.59 46.00 C368.39 46.00 364.80 42.41 364.80 35.22 C364.80 31.50 365.53 25.64 367.00 17.66 C368.47 9.68 369.27 4.35 369.41 1.69 C335.66 -2.03 318.80 -17.24 318.80 -43.95 C318.80 -54.86 322.39 -66.02 329.59 -77.45 C337.59 -90.48 346.80 -97.00 357.20 -97.00 C360.67 -97.00 362.41 -95.14 362.41 -91.42 C362.41 -87.70 361.47 -83.58 359.59 -79.05 C343.73 -73.08 335.80 -59.52 335.80 -38.39 C335.80 -28.55 338.96 -20.71 345.30 -14.86 C351.63 -9.02 359.93 -6.09 370.20 -6.09 Z M379.80 -38.69 L380.20 -21.20 C380.20 -15.77 380.33 -10.54 380.59 -5.50 C392.59 -7.88 401.99 -13.65 408.80 -22.80 C415.60 -31.94 419.00 -42.88 419.00 -55.59 C419.00 -63.14 417.60 -69.77 414.80 -75.47 C411.46 -83.16 406.39 -87.00 399.59 -87.00 C386.39 -87.00 379.80 -70.89 379.80 -38.69 Z M535.00 -81.02 C543.39 -72.23 547.59 -61.05 547.59 -47.48 C547.59 -33.92 543.20 -22.22 534.41 -12.38 C524.94 -2.12 513.54 3.00 500.20 3.00 C486.87 3.00 475.73 -1.39 466.80 -10.17 C457.99 -18.95 453.59 -30.46 453.59 -44.69 C453.59 -58.93 457.93 -70.77 466.59 -80.20 C475.26 -89.65 486.79 -94.38 501.19 -94.38 C515.59 -94.38 526.86 -89.92 535.00 -81.02 Z M521.20 -20.95 C526.13 -30.93 528.59 -41.00 528.59 -51.17 C528.59 -61.35 526.99 -69.63 523.80 -76.02 C519.80 -84.00 513.60 -88.00 505.20 -88.00 C494.93 -88.00 486.46 -81.88 479.80 -69.64 C474.60 -59.25 472.00 -49.04 472.00 -39.00 C472.00 -28.97 473.93 -20.62 477.80 -13.97 C482.33 -5.99 488.80 -2.00 497.20 -2.00 C506.93 -2.00 514.93 -8.32 521.20 -20.95 Z M601.00 28.62 L614.20 31.44 C618.73 31.44 622.50 30.23 625.50 27.83 C628.50 25.43 630.00 22.16 630.00 18.03 C630.00 9.10 624.00 4.04 612.00 2.83 C592.27 0.55 581.13 -1.11 578.59 -2.17 C566.73 -7.38 560.80 -19.29 560.80 -37.89 C560.80 -56.49 568.60 -70.66 584.20 -80.41 C597.13 -88.80 613.59 -93.00 633.59 -93.00 C637.06 -93.00 638.80 -90.30 638.80 -84.92 C638.80 -79.54 637.99 -76.30 636.39 -75.23 C634.80 -74.17 631.53 -73.64 626.59 -73.64 C611.26 -73.64 598.46 -71.24 588.20 -66.45 C574.87 -59.91 568.20 -49.70 568.20 -35.83 C568.20 -25.69 574.20 -19.36 586.20 -16.83 C592.46 -16.02 603.73 -14.48 620.00 -12.22 C632.00 -8.75 638.00 -1.08 638.00 10.78 C638.00 19.99 634.77 28.33 628.30 35.80 C621.83 43.27 613.99 47.00 604.80 47.00 C601.07 47.00 597.97 46.10 595.50 44.30 C593.03 42.50 591.80 40.21 591.80 37.41 C591.80 34.61 592.70 32.45 594.50 30.92 C596.30 29.39 598.47 28.62 601.00 28.62 Z M642.00 0.00" fill="#3E4C70"/></g></svg>